<svg width="207.91800000000003" height="207.91800000000003" xmlns="http://www.w3.org/2000/svg">

 <g>
  <title>background</title>
  <rect fill="none" id="canvas_background" height="402" width="582" y="-1" x="-1"/>
 </g>
 <g>
  <title>Layer 1</title>
  <path fill="#097e7d" id="svg_1" d="m59.655,180.863c-0.926,1.604 -2.606,2.5 -4.334,2.5c-0.849,0 -1.708,-0.217 -2.496,-0.671c-30.219,-17.455 -48.992,-49.953 -48.991,-84.813c0,-20.076 6.034,-39.288 17.232,-55.5l-6.344,-6.267c-1.372,-1.355 -1.842,-3.379 -1.208,-5.2c0.634,-1.822 2.26,-3.116 4.177,-3.326l21.274,-2.333c1.499,-0.168 2.988,0.354 4.059,1.413c1.071,1.058 1.608,2.543 1.462,4.041l-2.074,21.301c-0.187,1.92 -1.461,3.561 -3.275,4.217c-0.555,0.201 -1.13,0.299 -1.7,0.299c-1.294,0 -2.563,-0.502 -3.515,-1.443l-5.612,-5.544c-9.411,14.238 -14.476,30.926 -14.476,48.343c0,31.3 16.856,60.48 43.993,76.153c2.391,1.381 3.21,4.439 1.828,6.83zm134.936,-88.188c-2.761,0 -5,2.238 -5,5l0,0.204c0,48.457 -39.422,87.879 -87.879,87.879c-1.773,0 -3.543,-0.056 -5.308,-0.161l1.911,-7.653c0.467,-1.871 -0.184,-3.845 -1.672,-5.07c-1.49,-1.228 -3.551,-1.486 -5.297,-0.67l-19.385,9.068c-1.364,0.639 -2.368,1.857 -2.732,3.318s-0.052,3.008 0.852,4.212l12.848,17.117c0.956,1.273 2.445,1.999 3.999,1.999c0.329,0 0.662,-0.032 0.992,-0.1c1.891,-0.382 3.393,-1.817 3.86,-3.689l2.169,-8.688c2.579,0.203 5.169,0.317 7.766,0.317c53.971,0 97.879,-43.908 97.879,-97.915l0,-0.168c-0.003,-2.762 -2.242,-5 -5.003,-5zm7.664,-40.992c-1.491,-1.223 -3.552,-1.48 -5.299,-0.658l-7.485,3.52c-16.263,-32.815 -50.186,-54.545 -87.759,-54.545c-17.259,0.001 -34.227,4.556 -49.072,13.173c-2.388,1.387 -3.2,4.446 -1.814,6.834c1.386,2.388 4.444,3.203 6.834,1.814c13.322,-7.732 28.555,-11.82 44.053,-11.821c33.671,0 64.077,19.434 78.71,48.8l-7.89,3.711c-1.746,0.82 -2.863,2.572 -2.872,4.501c-0.009,1.929 1.092,3.691 2.83,4.528l19.281,9.288c0.686,0.33 1.428,0.495 2.17,0.495c0.727,0 1.454,-0.158 2.128,-0.476c1.363,-0.641 2.364,-1.861 2.726,-3.323l5.142,-20.774c0.463,-1.872 -0.192,-3.844 -1.683,-5.067zm-131.444,87.138c-2.761,0 -5,-2.238 -5,-5s2.239,-5 5,-5l25.902,0l0,-26.94l-7.435,0c-12.939,0 -23.467,-10.527 -23.467,-23.467c0,-12.946 10.527,-23.474 23.467,-23.474l7.435,0l0,-5.746c0,-2.762 2.239,-5 5,-5s5,2.238 5,5l0,5.746l25.902,0c2.761,0 5,2.238 5,5s-2.239,5 -5,5l-25.902,0l0,26.94l7.431,0c12.942,0 23.471,10.529 23.471,23.471s-10.529,23.47 -23.471,23.47l-7.431,0l0,7.741c0,2.762 -2.239,5 -5,5s-5,-2.238 -5,-5l0,-7.741l-25.902,0zm18.467,-46.94l7.435,0l0,-26.941l-7.435,0c-7.426,0 -13.467,6.041 -13.467,13.467c0,7.433 6.041,13.474 13.467,13.474zm17.435,36.94l7.431,0c7.428,0 13.471,-6.043 13.471,-13.47c0,-7.428 -6.043,-13.471 -13.471,-13.471l-7.431,0l0,26.941z"/>
 </g>
</svg>